<?xml version="1.0" encoding="UTF-8" standalone="no"?><!-- Generator: Gravit.io --><svg xmlns="http://www.w3.org/2000/svg" xmlns:xlink="http://www.w3.org/1999/xlink" style="isolation:isolate" viewBox="122 101.243 116 115.515" width="116pt" height="115.515pt"><g><g><path d=" M 212.114 151.558 L 223.925 151.558 C 231.69 151.558 238 158.353 238 166.119 C 238 173.884 231.69 180.194 223.925 180.194 L 211.144 180.194 C 205.643 180.194 201.275 184.562 201.275 189.901 L 201.275 202.682 C 201.275 210.448 194.965 216.757 187.199 216.757 C 179.434 216.757 172.8 210.448 172.8 202.682 L 172.8 190.872 C 172.8 190.872 171.506 175.826 184.125 163.206 C 196.745 150.587 212.114 151.558 212.114 151.558 L 212.114 151.558 Z " fill="rgb(212,28,15)"/><path d=" M 147.886 166.604 L 136.075 166.604 C 128.31 166.604 122 159.647 122 151.881 C 122 144.116 128.31 137.806 136.075 137.806 L 147.886 137.806 L 148.856 137.968 C 154.357 137.968 158.725 133.438 158.725 128.099 L 158.725 115.318 C 158.725 107.552 165.035 101.243 172.8 101.243 C 180.566 101.243 187.199 107.552 187.199 115.318 L 187.199 127.128 C 187.199 127.128 188.494 142.174 175.874 154.794 C 163.255 167.413 147.886 166.604 147.886 166.604 L 147.886 166.604 Z " fill="rgb(8,57,86)"/><g opacity="0.7"><path d=" M 172.639 127.128 L 172.639 115.318 C 172.639 107.552 179.595 101.243 187.361 101.243 C 195.127 101.243 201.436 107.552 201.436 115.318 L 201.436 127.128 L 201.275 128.099 C 201.275 133.6 205.805 137.968 211.144 137.968 L 223.925 137.968 C 231.69 137.968 238 144.278 238 152.043 C 238 159.809 231.69 166.442 223.925 166.442 L 212.114 166.442 C 212.114 166.442 197.068 167.736 184.449 155.117 C 171.83 142.498 172.639 127.128 172.639 127.128 Z " fill="rgb(133,187,25)"/></g><g opacity="0.7"><path d=" M 187.361 190.872 L 187.361 202.682 C 187.361 210.448 180.566 216.757 172.8 216.757 C 165.035 216.757 158.725 210.448 158.725 202.682 L 158.725 189.901 C 158.725 184.4 154.357 180.032 148.856 180.032 L 136.075 180.032 C 128.31 180.032 122 173.722 122 165.957 C 122 158.191 128.31 151.558 136.075 151.558 L 147.886 151.558 C 147.886 151.558 163.093 150.264 175.713 162.883 C 188.17 175.502 187.361 190.872 187.361 190.872 L 187.361 190.872 Z " fill="rgb(255,178,12)"/></g></g></g></svg>